<?xml version="1.0" encoding="iso-8859-1"?>
<!-- Generator: Adobe Illustrator 19.0.0, SVG Export Plug-In . SVG Version: 6.00 Build 0)  -->
<svg version="1.1" id="Capa_1" xmlns="http://www.w3.org/2000/svg" xmlns:xlink="http://www.w3.org/1999/xlink" x="0px" y="0px"
	 viewBox="0 0 512 512" style="enable-background:new 0 0 512 512;" xml:space="preserve">
<g>
	<path style="fill:#C1001F;" d="M317,240H195c-8.284,0-15-6.716-15-15v-30c0-24.813,20.187-45,45-45h62c24.813,0,45,20.187,45,45v30
		C332,233.284,325.284,240,317,240z M210,210h92v-15c0-8.271-6.729-15-15-15h-62c-8.271,0-15,6.729-15,15V210z"/>
	<path style="fill:#C1001F;" d="M135,150H15c-8.284,0-15-6.716-15-15s6.716-15,15-15h120c8.284,0,15,6.716,15,15
		S143.284,150,135,150z"/>
	<path style="fill:#C1001F;" d="M497,150H377c-8.284,0-15-6.716-15-15s6.716-15,15-15h120c8.284,0,15,6.716,15,15
		S505.284,150,497,150z"/>
</g>
<g>
	<path style="fill:#FD003A;" d="M467,210h-60c-24.813,0-45-20.187-45-45v-30c0-8.271-6.729-15-15-15H165c-8.271,0-15,6.729-15,15v30
		c0,24.813-20.187,45-45,45H45c-24.813,0-45-20.187-45-45v-30C0,60.561,60.561,0,135,0h242c74.439,0,135,60.561,135,135v30
		C512,189.813,491.813,210,467,210z M165,90h182c24.813,0,45,20.187,45,45v30c0,8.271,6.729,15,15,15h60c8.271,0,15-6.729,15-15v-30
		c0-57.897-47.103-105-105-105H135C77.103,30,30,77.103,30,135v30c0,8.271,6.729,15,15,15h60c8.271,0,15-6.729,15-15v-30
		C120,110.187,140.187,90,165,90z"/>
	<path style="fill:#FD003A;" d="M437,512H75c-24.813,0-45-20.187-45-45v-18.023c0-9.933,1.934-19.621,5.748-28.794l76.642-186.324
		c0.286-0.695,0.623-1.367,1.009-2.011C121.484,218.372,136.27,210,151.986,210h208.029c15.716,0,30.501,8.372,38.587,21.847
		c0.387,0.645,0.725,1.317,1.01,2.012l76.662,186.376c3.792,9.119,5.727,18.807,5.727,28.742V467C482,491.813,461.813,512,437,512z
		 M139.629,246.498L63.47,431.647c-2.31,5.557-3.47,11.37-3.47,17.33V467c0,8.271,6.729,15,15,15h362c8.271,0,15-6.729,15-15
		v-18.023c0-5.961-1.16-11.773-3.448-17.276l-76.181-185.203c-2.778-4.03-7.431-6.498-12.356-6.498H151.986
		C147.059,240,142.407,242.467,139.629,246.498z"/>
</g>
<path style="fill:#A4D9F5;" d="M257,450c-49.626,0-90-40.374-90-90s40.374-90,90-90s90,40.374,90,90S306.626,450,257,450z M257,300
	c-33.084,0-60,26.916-60,60s26.916,60,60,60s60-26.916,60-60S290.084,300,257,300z"/>
<path style="fill:#C1001F;" d="M257,390c-16.542,0-30-13.458-30-30s13.458-30,30-30s30,13.458,30,30S273.542,390,257,390z
	 M257.014,360H257C257.01,360,257.014,360,257.014,360z"/>
<g>
</g>
<g>
</g>
<g>
</g>
<g>
</g>
<g>
</g>
<g>
</g>
<g>
</g>
<g>
</g>
<g>
</g>
<g>
</g>
<g>
</g>
<g>
</g>
<g>
</g>
<g>
</g>
<g>
</g>
</svg>
